# This file uses centimeters as units for non-parametric coordinates.

mtllib Platform_right_Block_003.mtl
g default
v 1.298335 0.796187 3.529939
v 1.177037 0.546212 3.279964
v 3.580184 0.796187 3.529939
v 3.701482 0.546212 3.279964
v 0.710464 1.542404 3.529939
v 0.195306 1.792379 3.279964
v 4.168054 1.542404 3.529939
v 4.683211 1.792379 3.279964
v 0.195306 1.792379 2.779914
v 0.710464 1.542404 2.529939
v 4.168054 1.542404 2.529939
v 4.683211 1.792379 2.779914
v 1.298335 0.796187 2.529939
v 1.177037 0.546212 2.779914
v 3.580184 0.796187 2.529939
v 3.701482 0.546212 2.779914
vt 0.312506 -0.000000
vt 0.406515 0.050149
vt 0.375000 0.312494
vt 0.406515 0.199851
vt 0.687494 0.250000
vt 0.375000 0.812494
vt 0.625000 0.437506
vt 0.392727 0.699851
vt 0.607273 0.050149
vt 0.607273 0.199851
vt 0.625000 0.312494
vt 0.375000 0.437506
vt 0.392727 0.550149
vt 0.593485 0.550149
vt 0.593485 0.699851
vt 0.625000 0.812494
vt 0.625000 0.937506
vt 0.375000 0.937506
vt 0.687494 -0.000000
vt 0.812506 -0.000000
vt 0.812506 0.250000
vt 0.187494 -0.000000
vt 0.312506 0.250000
vt 0.187494 0.250000
vn 0.000000 -0.707107 0.707107
vn 0.000000 -0.707107 0.707107
vn 0.000000 -0.707107 0.707107
vn 0.000000 -0.707107 0.707107
vn -0.555448 -0.437582 0.707107
vn -0.555448 -0.437582 0.707107
vn -0.555448 -0.437582 0.707107
vn -0.555448 -0.437582 0.707107
vn 0.555449 -0.437581 0.707107
vn 0.555449 -0.437581 0.707107
vn 0.555449 -0.437581 0.707107
vn 0.555449 -0.437581 0.707107
vn 0.000000 0.707107 0.707107
vn 0.000000 0.707107 0.707107
vn 0.000000 0.707107 0.707107
vn 0.000000 0.707107 0.707107
vn -0.555447 -0.437582 -0.707107
vn -0.555447 -0.437582 -0.707107
vn -0.555448 -0.437582 -0.707107
vn -0.555448 -0.437582 -0.707107
vn 0.000000 0.707107 -0.707107
vn 0.000000 0.707107 -0.707107
vn 0.000000 0.707107 -0.707107
vn 0.000000 0.707107 -0.707107
vn 0.555448 -0.437581 -0.707107
vn 0.555448 -0.437581 -0.707107
vn 0.555448 -0.437581 -0.707107
vn 0.555448 -0.437581 -0.707107
vn 0.000000 -0.707107 -0.707107
vn 0.000000 -0.707107 -0.707107
vn 0.000000 -0.707107 -0.707107
vn 0.000000 -0.707107 -0.707107
vn 0.000000 0.000000 1.000000
vn 0.000000 0.000000 1.000000
vn 0.000000 0.000000 1.000000
vn 0.000000 0.000000 1.000000
vn 0.000000 1.000000 0.000000
vn 0.000000 1.000000 0.000000
vn 0.000000 1.000000 0.000000
vn 0.000000 1.000000 0.000000
vn 0.000000 0.000000 -1.000000
vn 0.000000 0.000000 -1.000000
vn 0.000000 0.000000 -1.000000
vn 0.000000 0.000000 -1.000000
vn 0.000000 -1.000000 0.000000
vn 0.000000 -1.000000 0.000000
vn 0.000000 -1.000000 0.000000
vn 0.000000 -1.000000 0.000000
vn 0.785522 -0.618834 0.000000
vn 0.785522 -0.618834 0.000000
vn 0.785522 -0.618834 0.000000
vn 0.785522 -0.618834 0.000000
vn -0.785522 -0.618834 0.000000
vn -0.785522 -0.618834 0.000000
vn -0.785522 -0.618834 0.000000
vn -0.785522 -0.618834 0.000000
s off
g pCube7 group2
usemtl initialShadingGroup
f 1/2/1 2/1/2 4/19/3 3/9/4
f 2/1/5 1/2/6 5/4/7 6/3/8
f 3/9/9 4/19/10 8/5/11 7/10/12
f 6/3/13 5/4/14 7/10/15 8/5/16
f 9/12/17 10/13/18 13/8/19 14/6/20
f 10/13/21 9/12/22 12/7/23 11/14/24
f 11/14/25 12/7/26 16/16/27 15/15/28
f 14/6/29 13/8/30 15/15/31 16/16/32
f 1/2/33 3/9/34 7/10/35 5/4/36
f 6/3/37 8/11/38 12/7/39 9/12/40
f 10/13/41 11/14/42 15/15/43 13/8/44
f 14/6/45 16/16/46 4/17/47 2/18/48
f 4/19/49 16/20/50 12/21/51 8/5/52
f 14/22/53 2/1/54 6/23/55 9/24/56
g topoSymmetrySet
v 2.795598 3.987910 0.000000
g default
v 2.718357 3.987910 0.000000
v 4.751048 3.986918 1.622183
v 4.751048 3.986918 0.000000
v 6.120930 2.094561 -0.000000
v 6.120930 2.094561 2.700494
v 4.609819 2.094561 1.622182
v 4.609819 2.094561 -0.000000
g topoSymmetrySet
v 4.482729 2.094561 4.783324
g default
v 3.071823 3.986918 3.498899
v 0.830498 3.987910 0.000000
v 3.071823 2.094561 3.366479
v 4.609819 2.094533 -0.000000
v 2.718357 2.094533 -0.000000
v 2.795598 2.094533 -0.000000
v 0.830498 2.094533 0.000000
v -1.857753 2.094561 3.366479
v 4.751048 3.986918 -1.622183
v 4.609819 2.094561 -1.622182
v 6.120930 2.094561 -2.700494
v 4.482729 2.094561 -4.783324
v 3.071823 3.986918 -3.498899
v 3.071823 2.094561 -3.366479
v -1.857753 2.094561 -3.366479
v -1.857753 2.094561 4.783323
v -1.857753 3.986918 3.498899
v -1.857754 3.987910 0.000000
v -1.857753 3.986918 -3.498899
v -1.857753 2.094561 -4.783323
v -1.857765 2.094544 3.366479
v -1.857770 2.094533 0.000000
v -1.857765 2.094544 -3.366479
vt 0.847851 0.500000
vt 0.844333 0.500000
vt 0.936908 0.346580
vt 0.936908 0.500000
vt 2.907292 0.500000
vt 2.907292 0.383142
vt 2.960923 0.429804
vt 2.960923 0.500000
vt 0.924688 0.047611
vt 0.999296 0.244597
vt 0.860431 0.169087
vt 0.758355 0.500000
vt 3.015508 0.354323
vt 2.965433 0.293012
vt -0.770003 0.421150
vt -0.606524 0.452187
vt -0.484743 0.452186
vt 2.960923 0.500000
vt 3.028053 0.500000
vt 3.025311 0.500000
vt 3.095055 0.500000
vt -0.737472 0.452187
vt -0.996224 0.431754
vt -0.737472 0.452186
vt 3.190464 0.354323
vt 3.190464 0.500000
vt 0.999296 0.500000
vt 0.936908 0.653420
vt 2.960923 0.570196
vt 2.907292 0.616858
vt 0.924688 0.952389
vt 0.860431 0.830912
vt 0.999296 0.755403
vt 3.015508 0.645677
vt 2.965433 0.706988
vt -0.362962 0.452187
vt -0.232014 0.452187
vt -0.232014 0.452186
vt -0.348850 0.431754
vt 3.190464 0.645677
vt 3.183671 0.293012
vt 3.200780 0.354323
vt 0.622686 0.169087
vt 0.644641 0.047611
vt 0.587809 0.500000
vt 0.622686 0.830912
vt 0.644641 0.952389
vt 3.200780 0.645677
vt 3.183671 0.706988
vn 0.000488 1.000000 0.000000
vn 0.000488 1.000000 0.000000
vn 0.000488 1.000000 0.000023
vn 0.000488 1.000000 0.000000
vn 0.000000 -1.000000 0.000000
vn 0.000000 -1.000000 0.000000
vn 0.000000 -1.000000 0.000000
vn 0.000000 -1.000000 0.000000
vn 0.551823 0.694075 0.462334
vn 0.551823 0.694075 0.462333
vn 0.551823 0.694075 0.462334
vn 0.551823 0.694075 0.462334
vn 0.000142 1.000000 0.000269
vn 0.000142 1.000000 0.000000
vn 0.000142 1.000000 0.000000
vn 0.000142 1.000000 0.000269
vn 0.000000 -1.000000 0.000000
vn 0.000000 -1.000000 0.000000
vn 0.000000 -1.000000 0.000000
vn 0.000000 -1.000000 0.000000
vn 1.000000 0.000000 0.000000
vn 1.000000 0.000000 0.000000
vn 1.000000 0.000000 0.000000
vn 0.000000 -1.000000 0.000000
vn 0.000004 -1.000000 0.000009
vn 0.000004 -1.000000 0.000000
vn 0.000000 -1.000000 0.000000
vn 0.000003 -1.000000 0.000006
vn 0.000003 -1.000000 0.000000
vn 0.000000 0.000000 0.000000
vn 0.000000 0.000000 1.000000
vn 0.000000 0.000000 1.000000
vn 0.000002 -1.000000 0.000005
vn 0.000002 -1.000000 0.000000
vn 0.810033 0.586385 0.000000
vn 0.810033 0.586385 0.000000
vn 0.810033 0.586385 0.000000
vn 0.810033 0.586385 0.000000
vn 0.000488 1.000000 -0.000023
vn 0.000000 -1.000000 0.000000
vn 0.000000 -1.000000 0.000000
vn 0.551823 0.694075 -0.462334
vn 0.551823 0.694075 -0.462334
vn 0.551823 0.694075 -0.462334
vn 0.551823 0.694075 -0.462333
vn 0.000142 1.000000 -0.000269
vn 0.000142 1.000000 -0.000269
vn 0.000000 -1.000000 0.000000
vn 0.000000 -1.000000 0.000000
vn 0.000000 -1.000000 0.000000
vn 0.000000 -1.000000 0.000000
vn 1.000000 0.000000 0.000000
vn 0.000004 -1.000000 -0.000009
vn 0.000003 -1.000000 -0.000006
vn 0.000000 0.000000 -0.000000
vn 0.000000 0.000000 -1.000000
vn 0.000000 0.000000 -1.000000
vn 0.000002 -1.000000 -0.000005
vn 0.810033 0.586385 0.000000
vn 0.810033 0.586385 0.000000
vn 0.000000 -1.000000 0.000000
vn 0.000000 -1.000000 0.000000
vn 0.000000 -1.000000 0.000000
vn 0.000000 -1.000000 0.000000
vn -0.000000 0.561599 0.827410
vn -0.000000 0.561599 0.827410
vn -0.000000 0.561599 0.827410
vn -0.000000 0.561599 0.827410
vn -0.000000 1.000000 0.000284
vn -0.000000 1.000000 0.000000
vn -0.000000 1.000000 0.000000
vn -0.000000 1.000000 0.000284
vn -0.000000 1.000000 -0.000283
vn -0.000000 1.000000 -0.000283
vn -0.000000 0.561599 -0.827410
vn -0.000000 0.561599 -0.827410
vn -0.000000 0.561599 -0.827410
vn -0.000000 0.561599 -0.827410
vn 0.000000 -1.000000 0.000000
vn 0.000000 -1.000000 0.000000
vn 0.000000 -1.000000 0.000000
vn 0.000000 -1.000000 0.000000
s 1
g group2 polySurface6
usemtl initialShadingGroup
f 17/25/57 18/26/58 19/27/59 20/28/60
s 2
f 21/29/61 22/30/62 23/31/63 24/32/64
s off
f 25/33/65 22/34/66 19/27/67 26/35/68
s 3
f 19/27/69 18/26/70 27/36/71 26/35/72
s off
f 28/37/73 23/31/74 22/30/75 25/38/76
s 4
f 24/39/77 23/40/78 29/41/79
s 5
f 29/42/80 23/31/81 30/43/82 31/44/83
f 23/31/81 28/37/84 32/45/85 30/43/82
s off
f 28/46/86 33/47/87 46/48/88
s 5
f 28/37/84 46/49/89 47/50/90 32/45/85
s 6
f 19/27/91 22/34/92 21/51/93 20/28/94
s 1
f 17/25/57 20/28/60 34/52/95 18/26/58
s 2
f 21/29/61 24/32/64 35/53/96 36/54/97
s off
f 37/55/98 38/56/99 34/52/100 36/57/101
s 3
f 34/52/102 38/56/103 27/36/71 18/26/70
s off
f 39/58/104 37/59/105 36/54/106 35/53/107
s 4
f 24/39/77 29/41/79 35/60/108
s 5
f 29/42/80 31/44/83 30/43/82 35/53/109
f 35/53/109 30/43/82 32/45/85 39/58/110
s off
f 39/61/111 48/62/112 40/63/113
s 5
f 39/58/110 32/45/85 47/50/90 48/64/114
s 6
f 34/52/115 20/28/94 21/51/93 36/57/116
s off
f 25/38/117 41/65/118 33/66/119 28/37/120
f 42/67/121 41/68/122 25/33/123 26/35/124
s 7
f 26/35/125 27/36/126 43/69/127 42/67/128
f 38/56/129 44/70/130 43/69/127 27/36/126
s off
f 45/71/131 44/70/132 38/56/133 37/55/134
f 37/59/135 39/58/136 40/72/137 45/73/138
g default
v -1.857753 -3.295026 3.033527
v 1.917755 -1.843969 3.033527
v -1.857753 2.140777 3.033527
v 4.803378 2.140777 3.033527
v -1.857753 2.140777 -2.552661
v 4.803378 2.140777 -2.552661
v -1.857753 -3.295026 -2.552661
v 1.917755 -1.843969 -2.552661
vt 0.375000 0.000000
vt 0.625000 0.000000
vt 0.625000 0.250000
vt 0.375000 0.250000
vt 0.625000 0.500000
vt 0.375000 0.500000
vt 0.625000 0.750000
vt 0.375000 0.750000
vt 0.625000 1.000000
vt 0.375000 1.000000
vt 0.875000 0.000000
vt 0.875000 0.250000
vt 0.125000 0.000000
vt 0.125000 0.250000
vn -0.000000 0.000000 1.000000
vn -0.000000 0.000000 1.000000
vn -0.000000 0.000000 1.000000
vn -0.000000 0.000000 1.000000
vn 0.000000 1.000000 0.000000
vn 0.000000 1.000000 0.000000
vn 0.000000 1.000000 0.000000
vn 0.000000 1.000000 0.000000
vn -0.000000 0.000000 -1.000000
vn -0.000000 0.000000 -1.000000
vn -0.000000 0.000000 -1.000000
vn -0.000000 0.000000 -1.000000
vn 0.358750 -0.933434 0.000000
vn 0.358750 -0.933434 0.000000
vn 0.358750 -0.933434 0.000000
vn 0.358750 -0.933434 0.000000
vn 0.809931 -0.586525 0.000000
vn 0.809931 -0.586525 0.000000
vn 0.809931 -0.586525 0.000000
vn 0.809931 -0.586525 0.000000
vn -1.000000 0.000000 0.000000
vn -1.000000 0.000000 0.000000
vn -1.000000 0.000000 0.000000
vn -1.000000 0.000000 0.000000
s off
g group2 polySurface1
usemtl initialShadingGroup
f 49/74/139 50/75/140 52/76/141 51/77/142
f 51/77/143 52/76/144 54/78/145 53/79/146
f 53/79/147 54/78/148 56/80/149 55/81/150
f 55/81/151 56/80/152 50/82/153 49/83/154
f 50/75/155 56/84/156 54/85/157 52/76/158
f 55/86/159 49/74/160 51/77/161 53/87/162
