# This file uses centimeters as units for non-parametric coordinates.

mtllib Platform_mid_Block_003.mtl
g default
v -1.349607 0.796187 3.529939
v -1.470905 0.546212 3.279964
v 0.932241 0.796187 3.529939
v 1.053539 0.546212 3.279964
v -1.937478 1.542404 3.529939
v -2.452636 1.792379 3.279964
v 1.520111 1.542404 3.529939
v 2.035269 1.792379 3.279964
v -2.452636 1.792379 2.779914
v -1.937478 1.542404 2.529939
v 1.520111 1.542404 2.529939
v 2.035269 1.792379 2.779914
v -1.349607 0.796187 2.529939
v -1.470905 0.546212 2.779914
v 0.932241 0.796187 2.529939
v 1.053539 0.546212 2.779914
vt 0.312506 -0.000000
vt 0.406515 0.050149
vt 0.375000 0.312494
vt 0.406515 0.199851
vt 0.687494 0.250000
vt 0.375000 0.812494
vt 0.625000 0.437506
vt 0.392727 0.699851
vt 0.607273 0.050149
vt 0.607273 0.199851
vt 0.625000 0.312494
vt 0.375000 0.437506
vt 0.392727 0.550149
vt 0.593485 0.550149
vt 0.593485 0.699851
vt 0.625000 0.812494
vt 0.625000 0.937506
vt 0.375000 0.937506
vt 0.687494 -0.000000
vt 0.812506 -0.000000
vt 0.812506 0.250000
vt 0.187494 -0.000000
vt 0.312506 0.250000
vt 0.187494 0.250000
vn 0.000000 -0.707107 0.707107
vn 0.000000 -0.707107 0.707107
vn 0.000000 -0.707107 0.707107
vn 0.000000 -0.707107 0.707107
vn -0.555448 -0.437582 0.707107
vn -0.555448 -0.437582 0.707107
vn -0.555448 -0.437582 0.707107
vn -0.555448 -0.437582 0.707107
vn 0.555448 -0.437581 0.707107
vn 0.555448 -0.437581 0.707107
vn 0.555448 -0.437581 0.707107
vn 0.555448 -0.437581 0.707107
vn 0.000000 0.707107 0.707107
vn 0.000000 0.707107 0.707107
vn 0.000000 0.707107 0.707107
vn 0.000000 0.707107 0.707107
vn -0.555448 -0.437582 -0.707107
vn -0.555448 -0.437582 -0.707107
vn -0.555448 -0.437582 -0.707107
vn -0.555448 -0.437582 -0.707107
vn 0.000000 0.707107 -0.707107
vn 0.000000 0.707107 -0.707107
vn 0.000000 0.707107 -0.707107
vn 0.000000 0.707107 -0.707107
vn 0.555448 -0.437581 -0.707107
vn 0.555448 -0.437581 -0.707107
vn 0.555448 -0.437581 -0.707107
vn 0.555448 -0.437581 -0.707107
vn 0.000000 -0.707107 -0.707107
vn 0.000000 -0.707107 -0.707107
vn 0.000000 -0.707107 -0.707107
vn 0.000000 -0.707107 -0.707107
vn 0.000000 0.000000 1.000000
vn 0.000000 0.000000 1.000000
vn 0.000000 0.000000 1.000000
vn 0.000000 0.000000 1.000000
vn 0.000000 1.000000 0.000000
vn 0.000000 1.000000 0.000000
vn 0.000000 1.000000 0.000000
vn 0.000000 1.000000 0.000000
vn 0.000000 0.000000 -1.000000
vn 0.000000 0.000000 -1.000000
vn 0.000000 0.000000 -1.000000
vn 0.000000 0.000000 -1.000000
vn 0.000000 -1.000000 0.000000
vn 0.000000 -1.000000 0.000000
vn 0.000000 -1.000000 0.000000
vn 0.000000 -1.000000 0.000000
vn 0.785522 -0.618834 0.000000
vn 0.785522 -0.618834 0.000000
vn 0.785522 -0.618834 0.000000
vn 0.785522 -0.618834 0.000000
vn -0.785522 -0.618834 0.000000
vn -0.785522 -0.618834 0.000000
vn -0.785522 -0.618834 0.000000
vn -0.785522 -0.618834 0.000000
s off
g pCube8 group1
usemtl initialShadingGroup
f 1/2/1 2/1/2 4/19/3 3/9/4
f 2/1/5 1/2/6 5/4/7 6/3/8
f 3/9/9 4/19/10 8/5/11 7/10/12
f 6/3/13 5/4/14 7/10/15 8/5/16
f 9/12/17 10/13/18 13/8/19 14/6/20
f 10/13/21 9/12/22 12/7/23 11/14/24
f 11/14/25 12/7/26 16/16/27 15/15/28
f 14/6/29 13/8/30 15/15/31 16/16/32
f 1/2/33 3/9/34 7/10/35 5/4/36
f 6/3/37 8/11/38 12/7/39 9/12/40
f 10/13/41 11/14/42 15/15/43 13/8/44
f 14/6/45 16/16/46 4/17/47 2/18/48
f 4/19/49 16/20/50 12/21/51 8/5/52
f 14/22/53 2/1/54 6/23/55 9/24/56
g topoSymmetrySet
v -0.000001 2.094533 0.000000
g default
v 0.000000 3.987910 0.000000
v -0.000001 2.094561 3.366480
v -0.000000 3.986918 3.498899
v -0.000000 2.094561 4.783324
v -0.000001 2.094533 3.366480
v -0.000001 2.094561 -3.366480
v -0.000000 3.986918 -3.498899
v -0.000000 2.094561 -4.783324
v -0.000001 2.094533 -3.366480
v 3.000000 2.094561 3.366480
v 3.000000 2.094561 4.783324
v 3.000000 3.986918 3.498898
v 2.999999 3.987910 0.000000
v 3.000000 3.986918 -3.498898
v 3.000000 2.094561 -4.783324
v 3.000000 2.094561 -3.366480
v -3.000003 2.094561 -3.366480
v -3.000001 2.094561 -4.783324
v -3.000003 3.986918 -3.498899
v -3.000003 3.987909 0.000000
v -3.000003 3.986918 3.498899
v -3.000001 2.094561 4.783324
v -3.000003 2.094561 3.366480
v -3.000000 2.094533 -0.000000
v -3.000005 2.094544 -3.366480
v 3.000000 2.094533 0.000000
v 2.999996 2.094544 -3.366480
vt 0.382872 0.169087
vt 0.499296 0.169087
vt 0.499296 0.500000
vt 0.415780 0.500000
vt 0.362157 0.047611
vt 0.499296 0.047611
vt 3.403807 0.293012
vt 3.395448 0.354323
vt 3.296937 0.354323
vt 3.296937 0.293012
vt -0.737472 0.452186
vt -1.130517 0.421150
vt 3.296937 0.500000
vt 3.296937 0.354323
vt 0.622686 0.169087
vt 0.587809 0.500000
vt 0.644641 0.047611
vt 3.183671 0.293012
vt 3.195613 0.354322
vt -0.863876 0.442205
vt 0.382872 0.830912
vt 0.499296 0.830912
vt 0.499296 0.952389
vt 0.362157 0.952389
vt 3.403807 0.706988
vt 3.296937 0.706988
vt 3.296937 0.645677
vt 3.387664 0.645677
vt -0.352274 0.431156
vt -0.409489 0.421150
vt -0.232014 0.452186
vt 3.296937 0.645677
vt 0.622686 0.830912
vt 0.644641 0.952389
vt 3.183671 0.706988
vt 3.200780 0.645677
vt -0.348850 0.431754
vt 3.403409 0.354323
vt -0.865468 0.442079
vt 3.408911 0.500000
vt -0.232014 0.452186
vt 3.403410 0.645677
vt 3.190463 0.354323
vt 3.185231 0.500000
vt 3.190464 0.645677
vt -0.232014 0.452186
vn -0.000000 1.000000 0.000283
vn 0.000000 1.000000 0.000283
vn 0.000000 1.000000 0.000000
vn -0.000000 1.000000 0.000000
vn 0.000000 0.561599 0.827410
vn 0.000000 0.561599 0.827410
vn 0.000000 0.561599 0.827410
vn 0.000000 0.561599 0.827410
vn 0.000000 -1.000000 0.000000
vn 0.000000 -1.000000 0.000000
vn 0.000000 -1.000000 -0.000000
vn 0.000000 -1.000000 -0.000000
vn 0.000000 0.000000 1.000000
vn 0.000000 0.000000 1.000000
vn 0.000000 0.000000 1.000000
vn -0.000005 -1.000000 0.000004
vn -0.000003 -1.000000 0.000001
vn 0.000000 -1.000000 0.000001
vn 0.000000 -1.000000 0.000004
vn 0.000000 1.000000 0.000283
vn 0.000000 1.000000 0.000000
vn 0.000000 0.561599 0.827410
vn 0.000000 0.561599 0.827410
vn 0.000000 -1.000000 -0.000000
vn 0.000000 -1.000000 -0.000000
vn 0.000000 0.000000 1.000000
vn -0.000000 1.000000 -0.000283
vn 0.000000 1.000000 -0.000283
vn 0.000000 0.561599 -0.827410
vn 0.000000 0.561599 -0.827410
vn 0.000000 0.561599 -0.827410
vn 0.000000 0.561599 -0.827410
vn 0.000000 -1.000000 -0.000000
vn 0.000000 -1.000000 0.000000
vn 0.000000 -1.000000 0.000000
vn 0.000000 -1.000000 -0.000000
vn 0.000000 0.000000 -1.000000
vn 0.000000 0.000000 -1.000000
vn -0.000000 0.000000 -1.000000
vn -0.000000 0.000000 -1.000000
vn -0.000002 -1.000000 -0.000002
vn 0.000000 -1.000000 -0.000002
vn 0.000000 1.000000 -0.000283
vn 0.000000 0.561599 -0.827410
vn 0.000000 0.561599 -0.827410
vn 0.000000 -1.000000 0.000000
vn 0.000000 -1.000000 0.000000
vn 0.000003 -1.000000 0.000001
vn 0.000005 -1.000000 0.000004
vn 0.000002 -1.000000 -0.000002
vn -0.000000 0.000000 -1.000000
vn -0.000000 0.000000 -1.000000
s 1
g group1 polySurface3
usemtl initialShadingGroup
f 38/25/57 20/26/58 18/27/59 37/28/60
s 2
f 20/26/61 38/25/62 39/29/63 21/30/64
s 3
f 39/31/65 40/32/66 19/33/67 21/34/68
s 4
f 40/63/69 22/35/70 19/36/71
s 5
f 40/62/72 41/64/73 17/37/74 22/38/75
s 1
f 29/39/76 30/40/77 18/27/59 20/26/58
s 2
f 20/26/61 21/30/64 28/41/78 29/39/79
s 3
f 28/42/80 21/34/68 19/33/67 27/43/81
s 4
f 27/44/82 19/36/71 22/35/70
s 1
f 36/45/83 37/28/60 18/27/59 24/46/84
s 6
f 24/46/85 25/47/86 35/48/87 36/45/88
s 7
f 35/49/89 25/50/90 23/51/91 34/52/92
s 8
f 42/65/93 34/53/94 23/54/95 26/55/96
s 5
f 41/64/73 42/66/97 26/56/98 17/37/74
s 1
f 31/57/99 24/46/84 18/27/59 30/40/77
s 6
f 24/46/85 31/57/100 32/58/101 25/47/86
s 7
f 32/59/102 33/60/103 23/51/91 25/50/90
s 5
f 43/68/104 27/67/105 22/38/75 17/37/74
f 44/69/106 43/68/104 17/37/74 26/56/98
s 8
f 33/61/107 44/70/108 26/55/96 23/54/95
g default
v 0.983935 -2.981272 3.529939
v 1.083877 -2.731297 3.279964
v -0.896180 -2.981272 3.529939
v -0.996123 -2.731297 3.279964
v 1.468307 -3.727489 3.529939
v 1.892768 -3.977464 3.279964
v -1.380551 -3.727489 3.529939
v -1.805013 -3.977464 3.279964
v 1.892768 -3.977464 2.779914
v 1.468307 -3.727489 2.529939
v -1.380551 -3.727489 2.529939
v -1.805013 -3.977464 2.779914
v 0.983935 -2.981272 2.529939
v 1.083877 -2.731297 2.779914
v -0.896180 -2.981272 2.529939
v -0.996123 -2.731297 2.779914
vt 0.312506 -0.000000
vt 0.406515 0.050149
vt 0.375000 0.312494
vt 0.406515 0.199851
vt 0.687494 0.250000
vt 0.375000 0.812494
vt 0.625000 0.437506
vt 0.392727 0.699851
vt 0.607273 0.050149
vt 0.607273 0.199851
vt 0.625000 0.312494
vt 0.375000 0.437506
vt 0.392727 0.550149
vt 0.593485 0.550149
vt 0.593485 0.699851
vt 0.625000 0.812494
vt 0.625000 0.937506
vt 0.375000 0.937506
vt 0.687494 -0.000000
vt 0.812506 -0.000000
vt 0.812506 0.250000
vt 0.187494 -0.000000
vt 0.312506 0.250000
vt 0.187494 0.250000
vn -0.000000 0.707107 0.707107
vn -0.000000 0.707107 0.707107
vn -0.000000 0.707107 0.707107
vn -0.000000 0.707107 0.707107
vn 0.629747 0.408770 0.660550
vn 0.629747 0.408770 0.660550
vn 0.629747 0.408770 0.660550
vn 0.629747 0.408770 0.660550
vn -0.629747 0.408770 0.660550
vn -0.629747 0.408770 0.660550
vn -0.629747 0.408770 0.660550
vn -0.629747 0.408770 0.660550
vn 0.000000 -0.707107 0.707107
vn 0.000000 -0.707107 0.707107
vn 0.000000 -0.707107 0.707107
vn 0.000000 -0.707107 0.707107
vn 0.629747 0.408770 -0.660550
vn 0.629747 0.408770 -0.660550
vn 0.629747 0.408770 -0.660550
vn 0.629747 0.408770 -0.660550
vn 0.000000 -0.707107 -0.707107
vn 0.000000 -0.707107 -0.707107
vn 0.000000 -0.707107 -0.707107
vn 0.000000 -0.707107 -0.707107
vn -0.629747 0.408770 -0.660550
vn -0.629747 0.408770 -0.660550
vn -0.629747 0.408770 -0.660550
vn -0.629747 0.408770 -0.660550
vn -0.000000 0.707107 -0.707107
vn -0.000000 0.707107 -0.707107
vn -0.000000 0.707107 -0.707107
vn -0.000000 0.707107 -0.707107
vn 0.000000 -0.000000 1.000000
vn 0.000000 -0.000000 1.000000
vn 0.000000 -0.000000 1.000000
vn 0.000000 -0.000000 1.000000
vn 0.000000 -1.000000 0.000000
vn 0.000000 -1.000000 0.000000
vn 0.000000 -1.000000 0.000000
vn 0.000000 -1.000000 0.000000
vn 0.000000 0.000000 -1.000000
vn 0.000000 0.000000 -1.000000
vn 0.000000 0.000000 -1.000000
vn 0.000000 0.000000 -1.000000
vn -0.000000 1.000000 0.000000
vn -0.000000 1.000000 0.000000
vn -0.000000 1.000000 0.000000
vn -0.000000 1.000000 0.000000
vn -0.838788 0.544459 0.000000
vn -0.838788 0.544459 0.000000
vn -0.838788 0.544459 0.000000
vn -0.838788 0.544459 0.000000
vn 0.838787 0.544459 0.000000
vn 0.838787 0.544459 0.000000
vn 0.838787 0.544459 0.000000
vn 0.838787 0.544459 0.000000
s off
g group1 pCube12
usemtl initialShadingGroup
f 45/72/109 46/71/110 48/89/111 47/79/112
f 46/71/113 45/72/114 49/74/115 50/73/116
f 47/79/117 48/89/118 52/75/119 51/80/120
f 50/73/121 49/74/122 51/80/123 52/75/124
f 53/82/125 54/83/126 57/78/127 58/76/128
f 54/83/129 53/82/130 56/77/131 55/84/132
f 55/84/133 56/77/134 60/86/135 59/85/136
f 58/76/137 57/78/138 59/85/139 60/86/140
f 45/72/141 47/79/142 51/80/143 49/74/144
f 50/73/145 52/81/146 56/77/147 53/82/148
f 54/83/149 55/84/150 59/85/151 57/78/152
f 58/76/153 60/86/154 48/87/155 46/88/156
f 48/89/157 60/90/158 56/91/159 52/75/160
f 58/92/161 46/71/162 50/93/163 53/94/164
g default
v 2.136302 -3.705760 3.529939
v 2.097863 -3.955735 3.279964
v 2.859423 -3.705760 3.529939
v 2.897863 -3.955735 3.279964
v 1.726843 -2.959543 3.529939
v 1.134767 -2.709568 3.279964
v 3.268882 -2.959543 3.529939
v 3.860958 -2.709568 3.279964
v 1.134767 -2.709568 2.779914
v 1.726843 -2.959543 2.529939
v 3.268882 -2.959543 2.529939
v 3.860958 -2.709568 2.779914
v 2.136302 -3.705760 2.529939
v 2.097863 -3.955735 2.779914
v 2.859423 -3.705760 2.529939
v 2.897863 -3.955735 2.779914
vt 0.312506 -0.000000
vt 0.406515 0.050149
vt 0.375000 0.312494
vt 0.406515 0.199851
vt 0.687494 0.250000
vt 0.375000 0.812494
vt 0.625000 0.437506
vt 0.392727 0.699851
vt 0.607273 0.050149
vt 0.607273 0.199851
vt 0.625000 0.312494
vt 0.375000 0.437506
vt 0.392727 0.550149
vt 0.593485 0.550149
vt 0.593485 0.699851
vt 0.625000 0.812494
vt 0.625000 0.937506
vt 0.375000 0.937506
vt 0.687494 -0.000000
vt 0.812506 -0.000000
vt 0.812506 0.250000
vt 0.187494 -0.000000
vt 0.312506 0.250000
vt 0.187494 0.250000
vn 0.000000 -0.707107 0.707107
vn 0.000000 -0.707107 0.707107
vn 0.000000 -0.707107 0.707107
vn 0.000000 -0.707107 0.707107
vn -0.571186 -0.393490 0.720356
vn -0.571186 -0.393490 0.720356
vn -0.571186 -0.393490 0.720356
vn -0.571186 -0.393490 0.720356
vn 0.571186 -0.393490 0.720356
vn 0.571186 -0.393490 0.720356
vn 0.571186 -0.393490 0.720356
vn 0.571186 -0.393490 0.720356
vn 0.000000 0.707107 0.707107
vn 0.000000 0.707107 0.707107
vn 0.000000 0.707107 0.707107
vn 0.000000 0.707107 0.707107
vn -0.571186 -0.393490 -0.720356
vn -0.571186 -0.393490 -0.720356
vn -0.571186 -0.393490 -0.720356
vn -0.571186 -0.393490 -0.720356
vn 0.000000 0.707107 -0.707107
vn 0.000000 0.707107 -0.707107
vn 0.000000 0.707107 -0.707107
vn 0.000000 0.707107 -0.707107
vn 0.571186 -0.393490 -0.720356
vn 0.571186 -0.393490 -0.720356
vn 0.571186 -0.393490 -0.720356
vn 0.571186 -0.393490 -0.720356
vn 0.000000 -0.707107 -0.707107
vn 0.000000 -0.707107 -0.707107
vn 0.000000 -0.707107 -0.707107
vn 0.000000 -0.707107 -0.707107
vn 0.000000 0.000000 1.000000
vn 0.000000 0.000000 1.000000
vn 0.000000 0.000000 1.000000
vn 0.000000 0.000000 1.000000
vn 0.000000 1.000000 0.000000
vn 0.000000 1.000000 0.000000
vn 0.000000 1.000000 0.000000
vn 0.000000 1.000000 0.000000
vn 0.000000 0.000000 -1.000000
vn 0.000000 0.000000 -1.000000
vn 0.000000 0.000000 -1.000000
vn 0.000000 0.000000 -1.000000
vn 0.000000 -1.000000 0.000000
vn 0.000000 -1.000000 0.000000
vn 0.000000 -1.000000 0.000000
vn 0.000000 -1.000000 0.000000
vn 0.791240 -0.611506 0.000000
vn 0.791240 -0.611506 0.000000
vn 0.791240 -0.611506 0.000000
vn 0.791240 -0.611506 0.000000
vn -0.791239 -0.611507 0.000000
vn -0.791239 -0.611507 0.000000
vn -0.791239 -0.611507 0.000000
vn -0.791239 -0.611507 0.000000
s off
g group1 pCube13
usemtl initialShadingGroup
f 61/96/165 62/95/166 64/113/167 63/103/168
f 62/95/169 61/96/170 65/98/171 66/97/172
f 63/103/173 64/113/174 68/99/175 67/104/176
f 66/97/177 65/98/178 67/104/179 68/99/180
f 69/106/181 70/107/182 73/102/183 74/100/184
f 70/107/185 69/106/186 72/101/187 71/108/188
f 71/108/189 72/101/190 76/110/191 75/109/192
f 74/100/193 73/102/194 75/109/195 76/110/196
f 61/96/197 63/103/198 67/104/199 65/98/200
f 66/97/201 68/105/202 72/101/203 69/106/204
f 70/107/205 71/108/206 75/109/207 73/102/208
f 74/100/209 76/110/210 64/111/211 62/112/212
f 64/113/213 76/114/214 72/115/215 68/99/216
f 74/116/217 62/95/218 66/117/219 69/118/220
g default
v -2.776794 -3.705760 3.529939
v -2.815233 -3.955735 3.279964
v -2.053673 -3.705760 3.529939
v -2.015233 -3.955735 3.279964
v -3.186253 -2.959543 3.529939
v -3.778330 -2.709568 3.279964
v -1.644214 -2.959543 3.529939
v -1.052138 -2.709568 3.279964
v -3.778330 -2.709568 2.779914
v -3.186253 -2.959543 2.529939
v -1.644214 -2.959543 2.529939
v -1.052138 -2.709568 2.779914
v -2.776794 -3.705760 2.529939
v -2.815233 -3.955735 2.779914
v -2.053673 -3.705760 2.529939
v -2.015233 -3.955735 2.779914
vt 0.312506 -0.000000
vt 0.406515 0.050149
vt 0.375000 0.312494
vt 0.406515 0.199851
vt 0.687494 0.250000
vt 0.375000 0.812494
vt 0.625000 0.437506
vt 0.392727 0.699851
vt 0.607273 0.050149
vt 0.607273 0.199851
vt 0.625000 0.312494
vt 0.375000 0.437506
vt 0.392727 0.550149
vt 0.593485 0.550149
vt 0.593485 0.699851
vt 0.625000 0.812494
vt 0.625000 0.937506
vt 0.375000 0.937506
vt 0.687494 -0.000000
vt 0.812506 -0.000000
vt 0.812506 0.250000
vt 0.187494 -0.000000
vt 0.312506 0.250000
vt 0.187494 0.250000
vn 0.000000 -0.707107 0.707107
vn 0.000000 -0.707107 0.707107
vn 0.000000 -0.707107 0.707107
vn 0.000000 -0.707107 0.707107
vn -0.571186 -0.393490 0.720356
vn -0.571186 -0.393490 0.720356
vn -0.571186 -0.393490 0.720356
vn -0.571186 -0.393490 0.720356
vn 0.571186 -0.393490 0.720356
vn 0.571186 -0.393490 0.720356
vn 0.571186 -0.393490 0.720356
vn 0.571186 -0.393490 0.720356
vn 0.000000 0.707107 0.707107
vn 0.000000 0.707107 0.707107
vn 0.000000 0.707107 0.707107
vn 0.000000 0.707107 0.707107
vn -0.571186 -0.393490 -0.720356
vn -0.571186 -0.393490 -0.720356
vn -0.571186 -0.393490 -0.720356
vn -0.571186 -0.393490 -0.720356
vn 0.000000 0.707107 -0.707107
vn 0.000000 0.707107 -0.707107
vn 0.000000 0.707107 -0.707107
vn 0.000000 0.707107 -0.707107
vn 0.571186 -0.393490 -0.720356
vn 0.571186 -0.393490 -0.720356
vn 0.571186 -0.393490 -0.720356
vn 0.571186 -0.393490 -0.720356
vn 0.000000 -0.707107 -0.707107
vn 0.000000 -0.707107 -0.707107
vn 0.000000 -0.707107 -0.707107
vn 0.000000 -0.707107 -0.707107
vn 0.000000 0.000000 1.000000
vn 0.000000 0.000000 1.000000
vn 0.000000 0.000000 1.000000
vn 0.000000 0.000000 1.000000
vn 0.000000 1.000000 0.000000
vn 0.000000 1.000000 0.000000
vn 0.000000 1.000000 0.000000
vn 0.000000 1.000000 0.000000
vn 0.000000 0.000000 -1.000000
vn 0.000000 0.000000 -1.000000
vn 0.000000 0.000000 -1.000000
vn 0.000000 0.000000 -1.000000
vn 0.000000 -1.000000 0.000000
vn 0.000000 -1.000000 0.000000
vn 0.000000 -1.000000 0.000000
vn 0.000000 -1.000000 0.000000
vn 0.791240 -0.611506 0.000000
vn 0.791240 -0.611506 0.000000
vn 0.791240 -0.611506 0.000000
vn 0.791240 -0.611506 0.000000
vn -0.791239 -0.611507 0.000000
vn -0.791239 -0.611507 0.000000
vn -0.791239 -0.611507 0.000000
vn -0.791239 -0.611507 0.000000
s off
g group1 pCube14
usemtl initialShadingGroup
f 77/120/221 78/119/222 80/137/223 79/127/224
f 78/119/225 77/120/226 81/122/227 82/121/228
f 79/127/229 80/137/230 84/123/231 83/128/232
f 82/121/233 81/122/234 83/128/235 84/123/236
f 85/130/237 86/131/238 89/126/239 90/124/240
f 86/131/241 85/130/242 88/125/243 87/132/244
f 87/132/245 88/125/246 92/134/247 91/133/248
f 90/124/249 89/126/250 91/133/251 92/134/252
f 77/120/253 79/127/254 83/128/255 81/122/256
f 82/121/257 84/129/258 88/125/259 85/130/260
f 86/131/261 87/132/262 91/133/263 89/126/264
f 90/124/265 92/134/266 80/135/267 78/136/268
f 80/137/269 92/138/270 88/139/271 84/123/272
f 90/140/273 78/119/274 82/141/275 85/142/276
g default
v -3.000000 -3.295026 3.033527
v 3.000000 -3.295026 3.033527
v -3.000000 2.140777 3.033527
v 3.000000 2.140777 3.033527
v -3.000000 2.140777 -2.552661
v 3.000000 2.140777 -2.552661
v -3.000000 -3.295026 -2.552661
v 3.000000 -3.295026 -2.552661
vt 0.375000 0.000000
vt 0.625000 0.000000
vt 0.375000 0.250000
vt 0.625000 0.250000
vt 0.375000 0.500000
vt 0.625000 0.500000
vt 0.375000 0.750000
vt 0.625000 0.750000
vt 0.375000 1.000000
vt 0.625000 1.000000
vt 0.875000 0.000000
vt 0.875000 0.250000
vt 0.125000 0.000000
vt 0.125000 0.250000
vn 0.000000 0.000000 1.000000
vn 0.000000 0.000000 1.000000
vn 0.000000 0.000000 1.000000
vn 0.000000 0.000000 1.000000
vn 0.000000 1.000000 0.000000
vn 0.000000 1.000000 0.000000
vn 0.000000 1.000000 0.000000
vn 0.000000 1.000000 0.000000
vn 0.000000 0.000000 -1.000000
vn 0.000000 0.000000 -1.000000
vn 0.000000 0.000000 -1.000000
vn 0.000000 0.000000 -1.000000
vn 0.000000 -1.000000 0.000000
vn 0.000000 -1.000000 0.000000
vn 0.000000 -1.000000 0.000000
vn 0.000000 -1.000000 0.000000
vn 1.000000 0.000000 0.000000
vn 1.000000 0.000000 0.000000
vn 1.000000 0.000000 0.000000
vn 1.000000 0.000000 0.000000
vn -1.000000 0.000000 0.000000
vn -1.000000 0.000000 0.000000
vn -1.000000 0.000000 0.000000
vn -1.000000 0.000000 0.000000
s off
g group1 pCube15
usemtl initialShadingGroup
f 93/143/277 94/144/278 96/146/279 95/145/280
f 95/145/281 96/146/282 98/148/283 97/147/284
f 97/147/285 98/148/286 100/150/287 99/149/288
f 99/149/289 100/150/290 94/152/291 93/151/292
f 94/144/293 100/153/294 98/154/295 96/146/296
f 99/155/297 93/143/298 95/145/299 97/156/300
