# This file uses centimeters as units for non-parametric coordinates.

mtllib Platform_Right_Blockout.mtl
g default
v 0.500000 -2.680014 9.483836
v -0.500000 -2.680014 9.483836
v 0.500000 -1.680014 8.941730
v -0.500000 -1.680014 8.941730
v 0.500000 -1.680014 9.941730
v -0.500000 -1.680014 9.941730
v 0.500000 -2.680014 9.941730
v -0.500000 -2.680014 9.941730
v -0.500000 -2.098291 8.992887
v 0.500000 -2.098291 8.992887
v 0.500000 -2.098291 9.941730
v -0.500000 -2.098291 9.941730
v -0.500000 -2.296201 9.051624
v 0.500000 -2.296201 9.051624
v 0.500000 -2.296201 9.941730
v -0.500000 -2.296201 9.941730
v -0.500000 -1.933426 8.868263
v 0.500000 -1.933426 8.868263
v 0.500000 -1.933426 9.941730
v -0.500000 -1.933426 9.941730
vt 0.375000 0.000000
vt 0.625000 0.000000
vt 0.375000 0.250000
vt 0.625000 0.250000
vt 0.375000 0.500000
vt 0.625000 0.500000
vt 0.375000 0.750000
vt 0.625000 0.750000
vt 0.375000 1.000000
vt 0.625000 1.000000
vt 0.875000 0.000000
vt 0.875000 0.250000
vt 0.125000 0.000000
vt 0.125000 0.250000
vt 0.625000 0.145431
vt 0.375000 0.145431
vt 0.125000 0.145431
vt 0.375000 0.604569
vt 0.625000 0.604569
vt 0.875000 0.145431
vt 0.625000 0.095953
vt 0.375000 0.095953
vt 0.125000 0.095953
vt 0.375000 0.654047
vt 0.625000 0.654047
vt 0.875000 0.095953
vt 0.625000 0.186647
vt 0.375000 0.186647
vt 0.125000 0.186647
vt 0.375000 0.563353
vt 0.625000 0.563353
vt 0.875000 0.186647
vn 0.000000 -0.747732 -0.664001
vn 0.000000 -0.747732 -0.664001
vn 0.000000 -0.644963 -0.764214
vn 0.000000 -0.644963 -0.764214
vn 0.000000 1.000000 0.000000
vn 0.000000 1.000000 0.000000
vn 0.000000 1.000000 0.000000
vn 0.000000 1.000000 0.000000
vn -0.000000 0.000000 1.000000
vn -0.000000 0.000000 1.000000
vn -0.000000 0.000000 1.000000
vn -0.000000 0.000000 1.000000
vn 0.000000 -1.000000 -0.000000
vn 0.000000 -1.000000 -0.000000
vn 0.000000 -1.000000 -0.000000
vn 0.000000 -1.000000 -0.000000
vn -1.000000 0.000000 -0.000000
vn -1.000000 0.000000 -0.000000
vn -1.000000 0.000000 -0.000000
vn -1.000000 0.000000 -0.000000
vn 1.000000 0.000000 0.000000
vn 1.000000 0.000000 0.000000
vn 1.000000 0.000000 0.000000
vn 1.000000 0.000000 0.000000
vn 0.000000 -0.451094 -0.892476
vn 0.000000 -0.451094 -0.892476
vn 0.000000 -0.121398 -0.992604
vn 0.000000 -0.121398 -0.992604
vn 1.000000 0.000000 0.000000
vn 1.000000 0.000000 0.000000
vn 1.000000 0.000000 0.000000
vn 1.000000 0.000000 0.000000
vn -0.000000 0.000000 1.000000
vn -0.000000 0.000000 1.000000
vn -0.000000 0.000000 1.000000
vn -0.000000 0.000000 1.000000
vn -1.000000 0.000000 -0.000000
vn -1.000000 0.000000 -0.000000
vn -1.000000 0.000000 -0.000000
vn -1.000000 0.000000 -0.000000
vn 0.000000 0.278447 -0.960452
vn 0.000000 0.278447 -0.960452
vn 1.000000 0.000000 0.000000
vn 1.000000 0.000000 0.000000
vn -0.000000 0.000000 1.000000
vn -0.000000 0.000000 1.000000
vn -1.000000 0.000000 -0.000000
vn -1.000000 0.000000 -0.000000
s 1
g pCube8
usemtl initialShadingGroup
f 1/1/1 2/2/2 13/21/3 14/22/4
s off
f 3/3/5 4/4/6 6/6/7 5/5/8
s 2
f 15/24/9 16/25/10 8/8/11 7/7/12
s off
f 7/7/13 8/8/14 2/10/15 1/9/16
s 3
f 2/2/17 8/11/18 16/26/19 13/21/20
s 4
f 7/13/21 1/1/22 14/22/23 15/23/24
s 1
f 10/16/25 9/15/26 17/27/27 18/28/28
s 4
f 11/17/29 10/16/30 18/28/31 19/29/32
s 2
f 19/30/33 20/31/34 12/19/35 11/18/36
s 3
f 9/15/37 12/20/38 20/32/39 17/27/40
s 1
f 14/22/4 13/21/3 9/15/26 10/16/25
s 4
f 15/23/24 14/22/23 10/16/30 11/17/29
s 2
f 11/18/36 12/19/35 16/25/10 15/24/9
s 3
f 13/21/20 16/26/19 12/20/38 9/15/37
s 1
f 18/28/28 17/27/27 4/4/41 3/3/42
s 4
f 19/29/32 18/28/31 3/3/43 5/14/44
s 2
f 5/5/45 6/6/46 20/31/34 19/30/33
s 3
f 17/27/40 20/32/39 6/12/47 4/4/48
g default
v -0.315229 -1.677355 9.944632
v 0.177433 -1.677355 9.944632
v -0.315229 -1.136030 9.944632
v 0.177433 -1.258641 9.944632
v -0.315229 -1.136030 8.607703
v 0.177433 -1.258641 8.508938
v -0.315229 -1.677355 8.607703
v 0.177433 -1.677355 8.607703
v 0.512050 -1.677355 8.607703
v 0.512050 -1.677355 9.944632
v 0.512050 -1.367683 8.568717
v 0.512050 -1.367683 9.944632
v 0.512050 -1.542649 8.563519
v 0.177433 -1.495215 8.564818
v -0.315229 -1.441880 8.564818
v -0.315229 -1.441880 9.944632
v 0.177433 -1.495215 9.944632
v 0.512050 -1.542649 9.944632
v 0.512050 -1.460778 8.564818
v 0.177433 -1.384517 8.568717
v -0.315229 -1.298765 8.607703
v -0.315229 -1.298765 9.944632
v 0.177433 -1.384517 9.944632
v 0.512050 -1.460778 9.944632
vt 0.375000 0.000000
vt 0.625000 0.000000
vt 0.375000 0.250000
vt 0.625000 0.250000
vt 0.375000 0.500000
vt 0.625000 0.500000
vt 0.375000 0.750000
vt 0.625000 0.750000
vt 0.375000 1.000000
vt 0.625000 1.000000
vt 0.875000 0.000000
vt 0.875000 0.250000
vt 0.125000 0.000000
vt 0.125000 0.250000
vt 0.625000 0.000000
vt 0.875000 0.000000
vt 0.875000 0.250000
vt 0.625000 0.250000
vt 0.875000 0.108749
vt 0.625000 0.641251
vt 0.875000 0.108749
vt 0.125000 0.108749
vt 0.375000 0.641251
vt 0.375000 0.108749
vt 0.625000 0.108749
vt 0.625000 0.108749
vt 0.875000 0.174844
vt 0.625000 0.575156
vt 0.875000 0.174844
vt 0.125000 0.174844
vt 0.375000 0.575156
vt 0.375000 0.174844
vt 0.625000 0.174844
vt 0.625000 0.174844
vn 0.000000 0.000000 1.000000
vn 0.000000 0.000000 1.000000
vn 0.000000 0.000000 1.000000
vn 0.000000 0.000000 1.000000
vn 0.241508 0.970399 0.000000
vn 0.269878 0.962895 0.000000
vn 0.270163 0.962814 0.000000
vn 0.241508 0.970399 0.000000
vn -0.176949 -0.199619 -0.963764
vn -0.126700 -0.213175 -0.968764
vn -0.061263 -0.051619 -0.996786
vn -0.112835 -0.045832 -0.992556
vn 0.000000 -1.000000 0.000000
vn 0.000000 -1.000000 0.000000
vn 0.000000 -1.000000 0.000000
vn 0.000000 -1.000000 0.000000
vn 1.000000 0.000000 0.000000
vn 1.000000 0.000000 0.000000
vn 1.000000 -0.000000 0.000000
vn 1.000000 -0.000000 0.000000
vn -1.000000 -0.000000 0.000000
vn -1.000000 -0.000000 0.000000
vn -1.000000 0.000000 0.000000
vn -1.000000 0.000000 0.000000
vn 0.000000 -1.000000 0.000000
vn 0.000000 -1.000000 0.000000
vn 0.012439 -0.247249 -0.968872
vn 0.004387 -0.102360 -0.994738
vn 0.309835 0.950790 0.000000
vn 0.309835 0.950790 0.000000
vn 0.000000 0.000000 1.000000
vn 0.000000 0.000000 1.000000
vn -0.014250 -0.223186 -0.974672
vn -0.012441 -0.095626 -0.995340
vn -0.014898 -0.170295 -0.985280
vn -0.020648 -0.264918 -0.964050
vn -0.012100 -0.045587 -0.998887
vn -0.010889 -0.201167 -0.979496
vn -1.000000 0.000000 0.000000
vn -1.000000 0.000000 0.000000
vn -1.000000 -0.000000 0.000000
vn -1.000000 0.000000 0.000000
vn -0.000000 0.000000 1.000000
vn -0.000000 0.000000 1.000000
vn -0.000000 0.000000 1.000000
vn -0.000000 0.000000 1.000000
vn 0.000000 0.000000 1.000000
vn 0.000000 0.000000 1.000000
vn 1.000000 0.000000 0.000000
vn 1.000000 0.000000 0.000000
vn 1.000000 0.000000 0.000000
vn 1.000000 0.000000 0.000000
s 1
g pCube3
usemtl initialShadingGroup
f 42/64/49 43/65/50 24/36/51 23/35/52
s 2
f 23/35/53 24/36/54 26/38/55 25/37/56
s 3
f 25/37/57 26/38/58 40/60/59 41/63/60
s 4
f 27/39/61 28/40/62 22/42/63 21/41/64
s 5
f 44/66/65 39/59/66 31/49/67 32/50/68
s 6
f 41/62/69 42/64/70 23/35/71 25/46/72
s 4
f 22/34/63 28/43/62 29/48/73 30/47/74
s 3
f 40/61/59 26/44/58 31/49/75 39/59/76
s 2
f 26/44/55 24/36/54 32/50/77 31/49/78
s 1
f 24/36/51 43/65/50 44/66/79 32/50/80
s 3
f 28/43/81 34/53/82 33/51/83 29/48/84
f 35/55/85 34/52/82 28/40/81 27/39/86
s 6
f 27/45/87 21/33/88 36/56/89 35/54/90
s 1
f 21/33/91 22/34/92 37/57/93 36/56/94
f 38/58/95 37/57/93 22/34/92 30/47/96
s 5
f 30/47/97 29/48/98 33/51/99 38/58/100
s 3
f 34/53/82 40/61/59 39/59/76 33/51/83
f 41/63/60 40/60/59 34/52/82 35/55/85
s 6
f 35/54/90 36/56/89 42/64/70 41/62/69
s 1
f 36/56/94 37/57/93 43/65/50 42/64/49
f 44/66/79 43/65/50 37/57/93 38/58/95
s 5
f 38/58/100 33/51/99 39/59/66 44/66/65
